# xmcd
#
# Track frame offsets:
#	150
#	10412
#	22787
#	33425
#	44795
#	54895
#	65165
#	79222
#	89512
#	101202
#	111360
#	120457
#	129540
#	139945
#	150152
#	160350
#	170527
#	181037
#	191382
#	206447
#
# Disc length: 2924 seconds
#
# Revision: 3
# Processed by: cddbd v1.5.2PL0 Copyright (c) Steve Scherf et al.
# Submitted via: audiograbber 1.83.01
#
DISCID=0d0b6a14
DTITLE=Pat Boone - Baby, Oh Baby
DYEAR=1992
DGENRE=Oldies
TTITLE0=Baby, Oh Baby (1963)
TTITLE1=Rosmarie (1963)
TTITLE2=Baby Sonnenschein (1963)
TTITLE3=Wie eine Lady (1963)
TTITLE4=Ein goldener Stern (1963)
TTITLE5=Komm' zu mir, wenn Du einsam bist (1963)
TTITLE6=Oh Lady (1966)
TTITLE7=Nein, Nein Valentina (1966)
TTITLE8=Mary Lou (1966)
TTITLE9=Wo find' ich meine Träume (1966)
TTITLE10=Que pasa contigo (1962)
TTITLE11=Y te quiero mucho (1962)
TTITLE12=Recuerdame siempre (1962)
TTITLE13=Amor al reves (1962)
TTITLE14=En cualquier lugar (1962)
TTITLE15=Cartas en la arena (1962)
TTITLE16=Mai Mai Mai Valentina (1966)
TTITLE17=Tu che non hai amato mai (1966)
TTITLE18=E fuori la pioggia cade (1966)
TTITLE19=Se tu non fossi qui (1966)
EXTD=Track dates provided.
EXTT0=
EXTT1=
EXTT2=
EXTT3=
EXTT4=
EXTT5=
EXTT6=
EXTT7=
EXTT8=
EXTT9=
EXTT10=
EXTT11=
EXTT12=
EXTT13=
EXTT14=
EXTT15=
EXTT16=
EXTT17=
EXTT18=
EXTT19=
PLAYORDER=
